<svg version="1.2" xmlns="http://www.w3.org/2000/svg" viewBox="0 0 16 15" width="16" height="15"><style>.a{fill:#fff}</style><path class="a" d="m8.6 12.3c0 1.5-1.7 2-2.8 2-1.6 0-4-0.6-4-2.3 0-1.8 2.7-2.3 4.2-2.3q0.2 0 0.4 0c0.8 0.7 2.2 1.3 2.2 2.6zm-1.3-8c0 1-0.4 1.7-1.4 1.7-1.8 0-2.9-1.8-2.9-3.2 0-1.1 0.7-2.2 2.2-2.2 1.4 0 2.1 2.4 2.1 3.7zm-1-4.3c-0.5 0-1 0.1-1.7 0.2-2 0.3-3.4 1.8-3.4 3.6 0 1.6 1.6 2.9 3.8 2.9 0.2 0 0.5 0 0.7-0.1-0.1 0.4-0.2 0.6-0.2 0.9 0 0.6 0.2 1.1 0.5 1.6-2.1 0-4.9 0.5-5.7 2.1-0.2 0.4-0.3 0.8-0.3 1.2 0 2 2.2 2.6 4.7 2.6 1.4 0 2.7-0.2 3.9-1 0.8-0.7 1.3-1.5 1.3-2.5 0-2.6-3-3.1-3-4.4 0-1.4 2.3-1.5 2.3-3.6 0-1.1-0.5-2.3-1.5-2.8h0.6l1.5-0.7h-3.5zm9.7 2.3h-2.4v-2.3h-1.2v2.3h-2.4v1.3h2.4v2h1.2v-2h2.4v-1.3z"/></svg>