<svg version="1.2" xmlns="http://www.w3.org/2000/svg" viewBox="0 0 16 14" width="16" height="14"><style>.a{fill:#fff}</style><path class="a" d="m15.5 2q-0.6 1-1.5 1.7 0 0.3 0 0.5c0 4.3-3.1 9.3-8.8 9.3-1.7 0-3.3-0.5-4.7-1.5q0.4 0.1 0.7 0.1c1.5 0 2.8-0.6 3.9-1.4-1.4-0.1-2.5-1-2.9-2.3q0.3 0 0.6 0 0.4 0 0.8-0.1c-1.4-0.3-2.5-1.6-2.5-3.2q0.6 0.3 1.4 0.4c-0.8-0.6-1.4-1.6-1.4-2.7q0-1 0.4-1.7c1.6 2 3.8 3.3 6.4 3.4q-0.1-0.3-0.1-0.7c0-1.8 1.4-3.3 3.1-3.3 0.9 0 1.7 0.4 2.2 1q1.1-0.2 2-0.8c-0.2 0.8-0.7 1.4-1.4 1.9q1-0.2 1.8-0.6z"/></svg>