<svg version="1.2" xmlns="http://www.w3.org/2000/svg" viewBox="0 0 13 14" width="13" height="14"><style>.a{fill:#fff}</style><path class="a" d="m3.5 12.1c0 1-0.8 1.9-1.7 1.9-1 0-1.8-0.9-1.8-1.9 0-1.1 0.8-1.9 1.8-1.9 0.9 0 1.7 0.8 1.7 1.9zm4.8 1.2c-0.2-2.1-1-4.1-2.5-5.6-1.3-1.5-3.2-2.4-5.2-2.6q-0.2 0-0.4 0.2-0.2 0.1-0.2 0.4v1.4c0 0.3 0.2 0.6 0.5 0.6 2.8 0.3 5.1 2.7 5.3 5.7 0.1 0.4 0.3 0.6 0.6 0.6h1.3q0.2 0 0.4-0.2 0.2-0.2 0.2-0.5zm4.7 0c-0.2-3.4-1.5-6.7-3.8-9.2-2.3-2.5-5.4-3.9-8.6-4.1q-0.2 0-0.4 0.2-0.2 0.2-0.2 0.4v1.5c0 0.3 0.2 0.6 0.6 0.6 5.3 0.3 9.6 4.9 9.9 10.7 0 0.3 0.3 0.6 0.6 0.6h1.3q0.3 0 0.4-0.2 0.2-0.2 0.2-0.5z"/></svg>