<svg version="1.2" xmlns="http://www.w3.org/2000/svg" viewBox="0 0 456 427" width="456" height="427"><defs><linearGradient id="P" gradientUnits="userSpaceOnUse"/><linearGradient id="g1" x1="156" y1="248" x2="156" y2="213.1" href="#P"><stop offset=".1" stop-color="#9d9995"/><stop offset=".1" stop-color="#979391"/><stop offset=".3" stop-color="#a39f99"/><stop offset=".4" stop-color="#a19d97"/><stop offset=".5" stop-color="#656565"/><stop offset=".6" stop-color="#97938f"/><stop offset=".9" stop-color="#e3e3e3"/><stop offset=".9" stop-color="#c1bdb7"/><stop offset="1" stop-color="#595155"/></linearGradient><linearGradient id="g2" x1="1" y1="199.4" x2="311" y2="199.4" href="#P"><stop stop-color="#837b7b"/><stop offset=".3" stop-color="#a9a39f"/><stop offset=".5" stop-color="#bfbbb7"/><stop offset=".8" stop-color="#cbcbc5"/><stop offset="1" stop-color="#dbddd9"/></linearGradient></defs><style>.a{fill:#e0e0e0}.b{fill:#ccc}.c{fill:#fff}.d{fill:#0e0e0e}.e{fill:#162427}.f{fill:#0f1e23}.g{fill:#999}.h{fill:url(#g1)}.i{fill:url(#g2)}</style><path class="a" d="m68 319c-32.6 0-59-26.4-59-59h-8l20.5-31 20.5 31h-8.3c0 19 15.3 34.3 34.3 34.3 0-0.1 0 24.7 0 24.7z"/><path class="b" d="m86.4 323c0-6 3.7-9.7 9.6-9.7h42.3c6 0 9.7 3.7 9.7 9.7v94.3c0 6-3.7 9.7-9.7 9.7h-42.3c-5.9 0-9.6-3.7-9.6-9.7z"/><path class="c" d="m88 324.5c0-5.9 3.5-9.6 9.1-9.6h40.1c5.7 0 9.2 3.7 9.2 9.6v91.3c0 5.9-3.5 9.6-9.2 9.6h-40.1c-5.6 0-9.1-3.7-9.1-9.6z"/><path class="d" d="m88.6 324c0-5.8 3.4-9.5 8.9-9.5h39.3c5.5 0 9 3.7 9 9.5v90.3c0 5.8-3.5 9.5-9 9.5h-39.3c-5.5 0-8.9-3.7-8.9-9.5z"/><ellipse  cx="117.2" cy="415.1" rx="5.6" ry="5.7"/><rect class="c" x="115.2" y="413.2" width="4" height="3.7" rx=".9"></rect><rect class="e" x="111.5" y="320.8" width="11.3" height="2.4" rx="1.2"></rect><rect class="f" x="112.2" y="321.4" width="10.1" height="1.2" rx=".6"></rect><path class="g" d="m91 333.3c0-2.6 0.1-2.8 2.7-2.8h46.9c2.6 0 2.8 0.2 2.8 2.8v70.9c0 2.6-0.2 2.8-2.8 2.8h-46.9c-2.6 0-2.7-0.2-2.7-2.8z"/><path class="g" d="m127.4 313.2c0-0.1 0.1-0.2 0.2-0.2h9.6c0.1 0 0.2 0.1 0.2 0.2 0 0.1-0.1 0.2-0.2 0.2h-9.6c-0.1 0-0.2-0.1-0.2-0.2z"/><path class="g" d="m86.2 350.3c-0.1 0-0.2-0.1-0.2-0.3v-17.7c0-0.2 0.1-0.3 0.2-0.3 0.1 0 0.2 0.1 0.2 0.3v17.7c0 0.2-0.1 0.3-0.2 0.3z"/><path class="g" d="m86.2 329c-0.1 0-0.2 0-0.2-0.1v-4.7c0 0 0.1-0.1 0.2-0.1 0.1 0 0.2 0.1 0.2 0.1v4.7c0 0.1-0.1 0.1-0.2 0.1z"/><path class="b" d="m269 365.4c6 0 9.7 3.7 9.7 9.6v42.3c0 6-3.7 9.7-9.7 9.7h-94.3c-6 0-9.7-3.7-9.7-9.7v-42.3c0-5.9 3.7-9.6 9.7-9.6z"/><path class="c" d="m267.5 367c5.9 0 9.6 3.5 9.6 9.1v40.1c0 5.7-3.7 9.2-9.6 9.2h-91.3c-5.9 0-9.6-3.5-9.6-9.2v-40.1c0-5.6 3.7-9.1 9.6-9.1z"/><path class="d" d="m267 368.6c5.8 0 9.5 3.4 9.5 9v39.2c0 5.5-3.7 9-9.5 9h-90.3c-5.8 0-9.5-3.5-9.5-9v-39.2c0-5.6 3.7-9 9.5-9z"/><ellipse  cx="175.9" cy="397.2" rx="5.7" ry="5.6"/><rect class="c" x="174" y="395.2" width="3.7" height="4" rx=".9"></rect><rect class="e" x="267.8" y="390.5" width="2.4" height="11.3" rx="1.2"></rect><rect class="f" x="268.4" y="391.2" width="1.2" height="10.1" rx=".6"></rect><path class="g" d="m258.7 371c2.6 0 2.8 0.1 2.8 2.7v46.9c0 2.6-0.2 2.8-2.8 2.8h-70.9c-2.6 0-2.8-0.2-2.8-2.8v-46.9c0-2.6 0.2-2.7 2.8-2.7z"/><path class="g" d="m278.8 407.4c0.1 0 0.2 0.1 0.2 0.2v9.6c0 0.1-0.1 0.2-0.2 0.2-0.1 0-0.2-0.1-0.2-0.2v-9.6c0-0.1 0.1-0.2 0.2-0.2z"/><path class="g" d="m240.7 366.2c0-0.1 0.1-0.2 0.3-0.2h17.7c0.2 0 0.3 0.1 0.3 0.2 0 0.1-0.1 0.2-0.3 0.2h-17.7c-0.2 0-0.3-0.1-0.3-0.2z"/><path class="g" d="m263 366.2c0-0.1 0-0.2 0.1-0.2h4.7c0 0 0.1 0.1 0.1 0.2 0 0.1-0.1 0.2-0.1 0.2h-4.7c-0.1 0-0.1-0.1-0.1-0.2z"/><path class="a" d="m407.5 341.5c0 32.6-26.4 59-59 59v8l-31-20.5 31-20.5v8.3c19 0 34.3-15.3 34.3-34.3-0.1 0 24.7 0 24.7 0z"/><path class="b" d="m336 165.8c0-5.4 3.4-8.8 8.9-8.8h102.2c5.5 0 8.9 3.4 8.9 8.8v139.4c0 5.4-3.4 8.8-8.9 8.8h-102.2c-5.5 0-8.9-3.4-8.9-8.8z"/><path class="c" d="m337.5 166.1c0-5.3 3.2-8.7 8.4-8.7h100.2c5.2 0 8.4 3.4 8.4 8.7v136.8c0 5.3-3.2 8.7-8.4 8.7h-100.2c-5.2 0-8.4-3.4-8.4-8.7z"/><path class="d" d="m338 166.6c0-5.3 3.2-8.6 8.2-8.6h99.6c5 0 8.2 3.3 8.2 8.6v135.8c0 5.3-3.2 8.6-8.2 8.6h-99.6c-5 0-8.2-3.3-8.2-8.6z"/><ellipse  cx="395.9" cy="303.1" rx="5.2" ry="5.1"/><rect class="c" x="394.1" y="301.4" width="3.7" height="3.4" rx=".8"></rect><path class="g" d="m349.6 175.1c0-2.3 0.2-2.5 2.5-2.5h87.5c2.4 0 2.5 0.2 2.5 2.5v118.2c0 2.4-0.1 2.5-2.5 2.5h-87.5c-2.3 0-2.5-0.1-2.5-2.5z"/><path class="a" d="m353 41c32.6 0 59 26.4 59 59h8l-20.5 31-20.5-31h8.3c0-19-15.3-34.3-34.3-34.3 0 0.1 0-24.7 0-24.7z"/><path class="h" d="m188.2 213.1c0 0 0.2 13.5 3.6 17.4 3.4 3.9 12.3 13.1 12.3 13.1 0 0 0.4 2.4-0.7 3.6-1.1 1.2-4.4 0.7-4.4 0.7h-86.1c0 0-3.3 0.5-4.3-0.7-1.1-1.2-0.8-3.6-0.8-3.6 0 0 9-9.2 12.3-13.1 3.4-3.9 3.7-17.4 3.7-17.4z"/><path class="i" d="m1 205.4v-19.7h310v19.7c0 4.3-3.5 7.7-7.8 7.7h-294.4c-4.3 0-7.8-3.4-7.8-7.7z"/><path  d="m298 173h-284v-160h284zm-297 13h310v-178.2c0-4.3-3.5-7.8-7.8-7.8h-294.4c-4.3 0-7.8 3.5-7.8 7.8z"/><path class="g" d="m14 13h284v160h-284z"/></svg>